<svg xmlns="http://www.w3.org/2000/svg" viewBox="0 0 304.53 346.06"><defs><style>.cls-1{fill:#ffef00;}.cls-2,.cls-3{fill:#ef0000;}.cls-3{opacity:0.5;}.cls-4{fill:#fff;}</style></defs><g id="Layer_2" data-name="Layer 2"><g id="Layer_2-2" data-name="Layer 2"><path d="M272.06,74c-19.18-19.18-41.17-41.17-41.53-41.51,0,0,0,0,0,0A110.72,110.72,0,0,0,46.37,143.16l-13.91,13.9A110.68,110.68,0,1,0,189,313.59h0l83.07-83.06h0a110.55,110.55,0,0,0,0-156.52Z"/><path d="M230.52,32.47A110.68,110.68,0,1,0,74,189h0l41.51,41.51A110.68,110.68,0,1,0,272.06,74Z"/><path class="cls-1" d="M152.26,7.9A102.83,102.83,0,1,0,255.08,110.73,102.83,102.83,0,0,0,152.26,7.9Z"/><path class="cls-2" d="M233.26,186.15l35.94,35.93a102.62,102.62,0,0,0-2.74-142.49c-4.07-4.09-8.29-8.3-12.4-12.4a110.56,110.56,0,0,1-20.8,119Z"/><path class="cls-3" d="M152.26,221.46a110.28,110.28,0,0,1-43.54-8.92l12.4,12.39a102.65,102.65,0,0,0,142.49,2.75l-35.94-35.94A110.33,110.33,0,0,1,152.26,221.46Z"/><g id="GIxVGW"><path class="cls-4" d="M93.39,107.55c.63,8.12,5.49,15.21,12.39,16.84,8.24,2,16.28.68,22.26-5.19,12.11-11.88,17.58-26.56,14.73-43.58-1.44-8.56-10.29-16.79-17.57-17.51-10-1-18.56,6.34-19.6,17.13a44.39,44.39,0,0,1-7.44,21C95.93,99.58,94.94,103.76,93.39,107.55Z"/><path d="M93.39,107.55c1.55-3.79,2.54-8,4.77-11.3a44.39,44.39,0,0,0,7.44-21c1-10.79,9.61-18.13,19.6-17.13,7.28.72,16.13,9,17.57,17.51,2.85,17-2.62,31.7-14.73,43.58-6,5.87-14,7.14-22.26,5.19C98.88,122.76,94,115.67,93.39,107.55Z"/><path class="cls-1" d="M114.93,81.2c4.3,5.75.24,15.57-7.69,17.67Z"/></g><g id="GIxVGW-2" data-name="GIxVGW"><path class="cls-4" d="M154.76,112.78c.62,8.12,5.48,15.2,12.38,16.84,8.24,1.95,16.28.68,22.26-5.19,12.11-11.88,17.59-26.57,14.73-43.58-1.44-8.56-10.29-16.79-17.57-17.52-10-1-18.55,6.35-19.6,17.14a44.56,44.56,0,0,1-7.43,21C157.29,104.81,156.31,109,154.76,112.78Z"/><path d="M154.76,112.78c1.55-3.8,2.53-8,4.77-11.3a44.56,44.56,0,0,0,7.43-21c1-10.79,9.61-18.13,19.6-17.14,7.28.73,16.13,9,17.57,17.52,2.86,17-2.62,31.7-14.73,43.58-6,5.87-14,7.14-22.26,5.19C160.24,128,155.38,120.9,154.76,112.78Z"/></g><path class="cls-1" d="M177,86c4.3,5.75.25,15.57-7.69,17.68Z"/></g></g></svg>