<svg id="Group_112" data-name="Group 112" xmlns="http://www.w3.org/2000/svg" width="120.083" height="52.473" viewBox="0 0 120.083 52.473">
  <g id="Group_125" data-name="Group 125">
    <g id="Group_118" data-name="Group 118" transform="translate(0 0.467)">
      <g id="Group_112-2" data-name="Group 112" transform="translate(35.554 0.788)">
        <path id="Path_426" data-name="Path 426" d="M986.119,619.547h0a.334.334,0,0,0-.046-.038l-.015-.011a.393.393,0,0,0-.052-.026l-.013-.005-.049-.014-.015,0a.33.33,0,0,0-.052,0h-6.889a.346.346,0,0,0-.308.189l-.1.189-1.286,2.518-2.8-2.8-.018-.017-.008-.007-.035-.025-.009-.005-.03-.016-.011,0-.031-.012-.01,0a.382.382,0,0,0-.088-.012h-6.891a.347.347,0,0,0-.306.511l.277.512,2.154,3.993-6.014,6.015h0a.324.324,0,0,0-.053.067.346.346,0,0,0-.007.343l.276.512,5.7,10.558v6.805a.346.346,0,0,0,.346.346h6.476a.352.352,0,0,0,.245-.1h0l7.286-7.286h0a.35.35,0,0,0,.1-.245v-6.8l5.7-10.559.276-.511a.347.347,0,0,0-.06-.41Z" transform="translate(-963.376 -619.446)"/>
        <path id="Path_427" data-name="Path 427" d="M1113.838,959.389Z" transform="translate(-1100.754 -929.829)"/>
      </g>
      <g id="Group_113" data-name="Group 113" transform="translate(17.489 0.319)">
        <path id="Path_428" data-name="Path 428" d="M781.063,636.064v0s0,0,0-.006a.342.342,0,0,0-.008-.057l0-.012a.347.347,0,0,0-.021-.06l0-.008c0-.009-.009-.018-.014-.027l-2.617-4.319a7.685,7.685,0,0,0,.883-11.632l-3.6-3.594-.048-.049a7.666,7.666,0,0,0-5.435-2.254h-9.6a.347.347,0,0,0-.347.347v.347l.076,4.284-3.972,2.437c-.016.016-.71,1.787-.722,1.806-.039.058.975,1.988.975,2.055v18.039a.347.347,0,0,0,.347.347h6.477a.346.346,0,0,0,.066-.007h0a.346.346,0,0,0,.124-.051l.005,0a.34.34,0,0,0,.047-.039h0l1.956-1.956,1.044,1.723.1.167a.346.346,0,0,0,.3.167h6.351a.334.334,0,0,0,.059-.006l.016,0a.363.363,0,0,0,.047-.014l.011,0a.35.35,0,0,0,.051-.027l.014-.01a.364.364,0,0,0,.043-.036l0,0h0l7.286-7.286h0a.36.36,0,0,0,.04-.049l.007-.011.009-.014a.353.353,0,0,0,.038-.1l0-.013A.347.347,0,0,0,781.063,636.064Z" transform="translate(-755.637 -614.044)"/>
      </g>
      <g id="Group_114" data-name="Group 114">
        <path id="Path_429" data-name="Path 429" d="M574.663,622.023h0l.248-.248,3.817-3.817.249-.249a.352.352,0,0,0,0-.5l-3.7-3.7h0l-.249-.249a9.856,9.856,0,0,0-16.393,9.857l-1.111,1.111a9.854,9.854,0,1,0,13.807,14.06l.248-.249,7.394-7.393a.419.419,0,0,0,.04-.049l.009-.014a.279.279,0,0,0,.025-.048l0-.007a.418.418,0,0,0,.017-.06l0-.011c0-.017,0-.035,0-.052V630.4a.427.427,0,0,0-.005-.061.01.01,0,0,1,0,0,.317.317,0,0,0-.011-.042s0-.007,0-.011a.116.116,0,0,0-.008-.018.212.212,0,0,0-.023-.043.083.083,0,0,0-.006-.011.3.3,0,0,0-.041-.05l0,0-.249-.249-3.817-3.817-.248-.249h0l-1.908-1.908Z" transform="translate(-554.51 -610.379)"/>
      </g>
      <g id="Group_115" data-name="Group 115" transform="translate(74.869 0.705)">
        <path id="Path_430" data-name="Path 430" d="M1436.328,618.584a.282.282,0,0,0-.048-.039l-.012-.007a.365.365,0,0,0-.052-.028h0a.344.344,0,0,0-.058-.019l-.014,0a.333.333,0,0,0-.054-.005h-16.6a.347.347,0,0,0-.347.346v6.013s0,0,0,0a.35.35,0,0,0,.006.061s0,0,0,0a.3.3,0,0,0,.018.06.019.019,0,0,0,0,.006.321.321,0,0,0,.028.055l0,.006a.359.359,0,0,0,.041.049l.391.391-4.035,4.035a.348.348,0,0,0-.1.245v6.013a.347.347,0,0,0,.347.346h4.713V647.8a.347.347,0,0,0,.347.346h6.475a.35.35,0,0,0,.245-.1l7.286-7.286a.348.348,0,0,0,.1-.245v-6.824l4.957-4.958a.35.35,0,0,0,.1-.245v-6.013a.35.35,0,0,0-.1-.245Z" transform="translate(-1415.499 -618.483)"/>
      </g>
      <g id="Group_116" data-name="Group 116" transform="translate(56.793 0.583)">
        <path id="Path_431" data-name="Path 431" d="M1230.154,622.85c-.654-.621-1.537-1.506-2.256-2.232-.36-.364-.678-.689-.906-.923l-.172-.176c-.056-.059-.112-.118-.17-.176a7.669,7.669,0,0,0-5.435-2.254h-9.6a.346.346,0,0,0-.347.346v7.143l-3.542,3.542h0a.347.347,0,0,0-.1.245V646.4a.347.347,0,0,0,.347.346h6.475a.35.35,0,0,0,.245-.1l3.261-3.261a7.674,7.674,0,0,0,5-2.2h0l.049-.048.047-.049,7.221-7.22.018-.017a7.678,7.678,0,0,0-.14-11.006Z" transform="translate(-1207.628 -617.089)"/>
      </g>
      <g id="Group_117" data-name="Group 117" transform="translate(92.205 0.981)">
        <path id="Path_432" data-name="Path 432" d="M1638.727,628.156l-3.642-3.641h0a9.711,9.711,0,0,0-16.153,9.709l-1.22,1.219a9.709,9.709,0,1,0,13.73,13.731h0l7.286-7.286h0a9.7,9.7,0,0,0,0-13.73Z" transform="translate(-1614.863 -621.665)"/>
      </g>
    </g>
    <g id="Group_119" data-name="Group 119" transform="translate(78.512 1.171)">
      <path id="Path_433" data-name="Path 433" d="M1474.581,618.584a.313.313,0,0,0-.048-.039l-.012-.007a.3.3,0,0,0-.052-.028h0a.323.323,0,0,0-.057-.019l-.015,0a.357.357,0,0,0-.052,0h-16.6a.347.347,0,0,0-.347.346v6.013s0,0,0,.005a.35.35,0,0,0,.006.061s0,0,0,0a.31.31,0,0,0,.018.06.019.019,0,0,0,0,.006.311.311,0,0,0,.028.054l0,.007a.331.331,0,0,0,.041.049l3.643,3.643a.351.351,0,0,0,.246.1h1.069v8.037s0,0,0,.006a.29.29,0,0,0,.006.061.013.013,0,0,0,0,.005.422.422,0,0,0,.016.055l.006.014a.326.326,0,0,0,.023.042l.008.013a.313.313,0,0,0,.039.048l3.643,3.643a.35.35,0,0,0,.246.1h6.475a.347.347,0,0,0,.346-.346v-11.68h4.712a.348.348,0,0,0,.347-.346v-6.013a.349.349,0,0,0-.1-.245Z" transform="translate(-1457.395 -618.483)"/>
      <path id="Path_434" data-name="Path 434" d="M1481.272,626.456h-15.9v5.319h5.059V643.8h5.782V632.469h-2.544a.347.347,0,0,1,0-.693h7.6Z" transform="translate(-1464.678 -625.763)" fill="#ffef00"/>
      <path id="Path_435" data-name="Path 435" d="M1656.2,637.129l2.95,2.949v-5.032l-2.95-2.949v5.032Z" transform="translate(-1638.909 -630.914)" fill="#ef0000"/>
      <path id="Path_436" data-name="Path 436" d="M1534.485,833.91h-5.291l2.95,2.949h5.494l-2.949-2.949Z" transform="translate(-1522.95 -815.178)" fill="#ef0000" opacity="0.5"/>
      <path id="Path_437" data-name="Path 437" d="M1607.532,695.6h-3.875l2.95,2.95h4.078l-2.949-2.95Z" transform="translate(-1590.938 -688.898)" fill="#ef0000" opacity="0.5"/>
      <path id="Path_438" data-name="Path 438" d="M1471.019,695.6l2.949,2.95h.925V695.6Z" transform="translate(-1469.834 -688.898)" fill="#ef0000" opacity="0.5"/>
      <path id="Path_439" data-name="Path 439" d="M1598.015,712.088v.2l2.95,2.949V704.2l-2.95-2.949Z" transform="translate(-1585.787 -694.049)" fill="#ef0000"/>
    </g>
    <g id="Group_120" data-name="Group 120" transform="translate(97.014 0.748)">
      <path id="Path_440" data-name="Path 440" d="M1686.745,616.466a9.709,9.709,0,1,0-13.73,13.73h0l3.641,3.641a9.709,9.709,0,1,0,13.73-13.73Zm-5.347,8.383a.835.835,0,1,1-.793,1.4A3,3,0,0,1,1681.4,624.849Z" transform="translate(-1670.167 -613.618)"/>
      <path id="Path_441" data-name="Path 441" d="M1687.155,621.588a9.02,9.02,0,1,0,9.019,9.021A9.021,9.021,0,0,0,1687.155,621.588Zm0,12.72a3.7,3.7,0,1,1,3.7-3.7A3.7,3.7,0,0,1,1687.155,634.308Z" transform="translate(-1677.442 -620.895)" fill="#ffef00"/>
      <path id="Path_442" data-name="Path 442" d="M1863.578,691.83l3.153,3.152a9,9,0,0,0-.24-12.5c-.358-.359-.728-.728-1.088-1.088a9.7,9.7,0,0,1-1.824,10.435Z" transform="translate(-1846.76 -675.501)" fill="#ef0000"/>
      <path id="Path_443" data-name="Path 443" d="M1741.761,809.642a9.668,9.668,0,0,1-3.82-.783l1.088,1.088a9,9,0,0,0,12.5.24l-3.152-3.153A9.679,9.679,0,0,1,1741.761,809.642Z" transform="translate(-1732.048 -790.215)" fill="#ef0000" opacity="0.5"/>
      <path id="Path_444" data-name="Path 444" d="M1747.935,703.87a3.006,3.006,0,0,0,2.354,4.872,3.7,3.7,0,0,1,.8-1.723Z" transform="translate(-1740.578 -696.022)" fill="#ef0000"/>
      <path id="Path_445" data-name="Path 445" d="M1765.286,693.741a3,3,0,0,0-4.872-2.354l3.149,3.149A3.7,3.7,0,0,1,1765.286,693.741Z" transform="translate(-1752.566 -684.029)" fill="#ef0000" opacity="0.5"/>
    </g>
    <g id="Group_121" data-name="Group 121" transform="translate(3.23 0)">
      <path id="Path_446" data-name="Path 446" d="M605.209,615.516a3.023,3.023,0,0,1,2.157.893l.008.008.24.241a.353.353,0,0,0,.5,0l.248-.249,3.817-3.817.249-.248a.352.352,0,0,0,0-.5l-3.7-3.7h0l-.249-.249a9.854,9.854,0,1,0-13.939,13.931h0l0,0,0,0c.119.119,2.029,2.03,3.7,3.7a9.849,9.849,0,0,0,13.933,0l.249-.249a.351.351,0,0,0,0-.5l-.249-.249-3.817-3.817-.248-.248h0l-3.447-3.447-.249-.249a.352.352,0,0,0-.5,0l-.248.249a1.168,1.168,0,1,1,1.539-1.512Z" transform="translate(-591.656 -605.014)"/>
      <path id="Path_447" data-name="Path 447" d="M608.9,618.5a3.74,3.74,0,0,1,2.654,1.1l3.817-3.817a9.153,9.153,0,1,0,0,12.943l-3.817-3.816a3.755,3.755,0,1,1-2.654-6.41Z" transform="translate(-599.046 -612.399)" fill="#ffef00"/>
      <path id="Path_448" data-name="Path 448" d="M669.906,695.714a3.056,3.056,0,0,0,3.05,3.051A3.755,3.755,0,0,1,674,696.757l-3.2-3.2A3.044,3.044,0,0,0,669.906,695.714Z" transform="translate(-663.102 -685.859)" fill="#ef0000"/>
      <path id="Path_449" data-name="Path 449" d="M690.594,684.408h0l-.248-.249a3.048,3.048,0,0,0-3.759-.439l3.188,3.189a3.736,3.736,0,0,1,2.11-.651,3.808,3.808,0,0,1,.609.05l-1.9-1.9Z" transform="translate(-678.332 -676.461)" fill="#ef0000" opacity="0.5"/>
      <path id="Path_450" data-name="Path 450" d="M741.256,653.47h0l3.2,3.2h0l3.816-3.817h0l-3.2-3.2h0Z" transform="translate(-728.247 -645.771)" fill="#ef0000"/>
      <path id="Path_451" data-name="Path 451" d="M664.292,801.392a9.811,9.811,0,0,1-3.878-.795l1.108,1.107a9.146,9.146,0,0,0,12.937,0h0l-3.2-3.2h0A9.791,9.791,0,0,1,664.292,801.392Z" transform="translate(-654.435 -781.68)" fill="#ef0000" opacity="0.5"/>
    </g>
    <g id="Group_122" data-name="Group 122" transform="translate(22.109 1.018)">
      <path id="Path_452" data-name="Path 452" d="M826.9,634.256a7.685,7.685,0,0,0,.883-11.632l-3.6-3.594-.048-.049a7.667,7.667,0,0,0-5.435-2.254h-9.6a.347.347,0,0,0-.347.347v18.041a.355.355,0,0,0,.006.058l0,.015a.351.351,0,0,0,.017.055v0a.335.335,0,0,0,.028.053l.008.012a.33.33,0,0,0,.039.047L812.508,639a.349.349,0,0,0,.245.1h6.475a.347.347,0,0,0,.347-.347v-2.806L822.626,639a.349.349,0,0,0,.245.1h6.351a.347.347,0,0,0,.3-.526Z" transform="translate(-808.763 -616.726)"/>
      <path id="Path_453" data-name="Path 453" d="M899.359,695.523a.983.983,0,0,0-.7-1.678h-1.823L898.8,695.8A.98.98,0,0,0,899.359,695.523Z" transform="translate(-889.182 -687.139)" fill="#ef0000" opacity="0.5"/>
      <path id="Path_454" data-name="Path 454" d="M892.679,700.96l-1.476-1.476v1.476h1.476Z" transform="translate(-884.034 -692.288)" fill="#ef0000"/>
      <path id="Path_455" data-name="Path 455" d="M827.669,832.148h-5.291l2.949,2.949h5.495l-2.95-2.949Z" transform="translate(-821.194 -813.416)" fill="#ef0000" opacity="0.5"/>
      <path id="Path_456" data-name="Path 456" d="M991.609,803.065l.3.491,1.586,1.586-1.277-2.107-1.586-1.586Z" transform="translate(-974.815 -785.386)" fill="#ef0000"/>
      <path id="Path_457" data-name="Path 457" d="M978.449,680.615a7.646,7.646,0,0,1-2.165,2.516l3.147,3.147a6.991,6.991,0,0,0,.818-10.594l-1.382-1.382a7.727,7.727,0,0,1-.419,6.312Z" transform="translate(-961.717 -669.296)" fill="#ef0000"/>
      <path id="Path_458" data-name="Path 458" d="M943.636,832.148h-4.9l2.95,2.949h5.37l-2.949-2.949Z" transform="translate(-927.435 -813.416)" fill="#ef0000" opacity="0.5"/>
      <path id="Path_459" data-name="Path 459" d="M891.2,773.282v4.628l2.95,2.95v-2.709l-.051-.084Z" transform="translate(-884.034 -759.669)" fill="#ef0000"/>
      <path id="Path_460" data-name="Path 460" d="M832.985,631.695a7,7,0,0,0-7-7h-9.251v17.346h5.782V630.018h3.006a1.677,1.677,0,1,1,0,3.353h-2.313v2.91l3.491,5.763h5.541l-2.641-4.359A6.992,6.992,0,0,0,832.985,631.695Z" transform="translate(-816.045 -624.006)" fill="#ffef00"/>
    </g>
    <g id="Group_123" data-name="Group 123" transform="translate(39.197 1.255)">
      <path id="Path_461" data-name="Path 461" d="M1024.373,619.547h0a.328.328,0,0,0-.047-.038l-.016-.011a.468.468,0,0,0-.052-.027l-.013,0a.368.368,0,0,0-.051-.014l-.013,0a.34.34,0,0,0-.052,0h-6.889a.345.345,0,0,0-.308.189l-.1.189-1.286,2.519-2.8-2.8-.019-.017-.008-.007-.035-.025-.01-.005-.029-.015-.012,0-.029-.01-.012,0-.043-.009h0l-.043,0h-6.892a.347.347,0,0,0-.306.511l.277.512,5.7,10.558v6.8a.261.261,0,0,0,0,.034.274.274,0,0,0,0,.031.3.3,0,0,0,.01.034c0,.011.006.023.01.033a.253.253,0,0,0,.016.031.183.183,0,0,0,.016.03.276.276,0,0,0,.044.054l3.642,3.643a.349.349,0,0,0,.245.1h6.476a.347.347,0,0,0,.347-.346V634.67l5.7-10.559.276-.511a.347.347,0,0,0-.06-.41Z" transform="translate(-1005.274 -619.446)"/>
      <path id="Path_462" data-name="Path 462" d="M1027.194,627.419l-2.188,4.287,1.318,2.582a.347.347,0,0,1-.618.315l-3.667-7.185h-6.095l5.782,10.712v6.633h5.782v-6.633l5.782-10.712Z" transform="translate(-1015.016 -626.726)" fill="#ffef00"/>
      <path id="Path_463" data-name="Path 463" d="M1093.357,834.873h-5.292l2.949,2.949h5.5l-2.949-2.949Z" transform="translate(-1080.866 -816.141)" fill="#ef0000" opacity="0.5"/>
      <path id="Path_464" data-name="Path 464" d="M1157.825,640.55l3.131,3.131,5.519-10.226.153-.284-3.131-3.131-.055.1Z" transform="translate(-1144.559 -629.119)" fill="#ef0000"/>
      <path id="Path_465" data-name="Path 465" d="M1156.9,766.961v.2l2.95,2.949V764.2l-2.95-2.949Z" transform="translate(-1143.713 -748.922)" fill="#ef0000"/>
      <path id="Path_466" data-name="Path 466" d="M1104.905,645.508l-1.4-1.4,1.059,2.074Z" transform="translate(-1094.961 -641.961)" fill="#ef0000"/>
    </g>
    <g id="Group_124" data-name="Group 124" transform="translate(60.436 1.05)">
      <path id="Path_467" data-name="Path 467" d="M1268.411,622.85c-.654-.621-1.537-1.505-2.256-2.232-.36-.364-.678-.689-.906-.923l-.173-.177q-.083-.089-.169-.175a7.668,7.668,0,0,0-5.435-2.254h-9.6a.346.346,0,0,0-.347.346v18.039h0a.3.3,0,0,0,.006.06.061.061,0,0,0,0,.013.332.332,0,0,0,.046.112l.008.011a.3.3,0,0,0,.039.047l3.643,3.643a.351.351,0,0,0,.245.1h6.475a.348.348,0,0,0,.348-.346v-3.007h2.775a7.687,7.687,0,0,0,5.3-13.261Z" transform="translate(-1249.528 -617.089)"/>
      <path id="Path_468" data-name="Path 468" d="M1266.744,625.062h-9.251v17.346h5.783V630.381h3.006a1.677,1.677,0,0,1,0,3.353h-2.313v5.319h2.775a7,7,0,1,0,0-13.992Z" transform="translate(-1256.8 -624.369)" fill="#ffef00"/>
      <path id="Path_469" data-name="Path 469" d="M1429.322,683.033l3.152,3.152a6.983,6.983,0,0,0-.381-9.745c-.366-.348-.8-.774-1.235-1.208a7.686,7.686,0,0,1-1.535,7.8Z" transform="translate(-1413.688 -670.176)" fill="#ef0000"/>
      <path id="Path_470" data-name="Path 470" d="M1333.443,701.328l-1.476-1.476v1.476h1.476Z" transform="translate(-1324.798 -692.656)" fill="#ef0000"/>
      <path id="Path_471" data-name="Path 471" d="M1340.121,695.889a.983.983,0,0,0-.7-1.678H1337.6l1.957,1.957A.986.986,0,0,0,1340.121,695.889Z" transform="translate(-1329.944 -687.505)" fill="#ef0000" opacity="0.5"/>
      <path id="Path_472" data-name="Path 472" d="M1268.434,832.517h-5.292l2.949,2.949h5.494l-2.95-2.949Z" transform="translate(-1261.959 -813.784)" fill="#ef0000" opacity="0.5"/>
      <path id="Path_473" data-name="Path 473" d="M1339.888,772.627H1337.6l2.949,2.95h2.979a6.968,6.968,0,0,0,4.71-1.828l-3.152-3.152A7.661,7.661,0,0,1,1339.888,772.627Z" transform="translate(-1329.944 -757.248)" fill="#ef0000" opacity="0.5"/>
      <path id="Path_474" data-name="Path 474" d="M1331.967,801.757v.2l2.95,2.949v-2.373l-2.95-2.949Z" transform="translate(-1324.798 -783.719)" fill="#ef0000"/>
    </g>
  </g>
  <g id="Group_138" data-name="Group 138" transform="translate(7.106 22.38)">
    <g id="Group_131" data-name="Group 131" transform="translate(0 0)">
      <g id="Group_126" data-name="Group 126" transform="translate(0 0.157)">
        <path id="Path_475" data-name="Path 475" d="M654.631,866.946l-.027-.028a9.257,9.257,0,0,0-6.563-2.722h-7.852a.343.343,0,0,0-.344.344v7.08l-3.511,3.511a.347.347,0,0,0-.1.243v17.882a.343.343,0,0,0,.343.344h7.852a9.263,9.263,0,0,0,6.723-2.886c.378-.4,1.008-1.038,1.74-1.773,1.1-1.1,2.421-2.417,3.47-3.456.525-.52.981-.971,1.306-1.292l.381-.376.134-.132.031-.03a9.27,9.27,0,0,0,0-13.125Z" transform="translate(-636.234 -864.196)"/>
      </g>
      <g id="Group_127" data-name="Group 127" transform="translate(79.32 0.145)">
        <path id="Path_476" data-name="Path 476" d="M1571.628,875.486h0l0,0,0,0-.01-.01,0,0-.271-.271.987-.986h0a.345.345,0,0,0,.1-.243v-5.961a.346.346,0,0,0-.1-.243l-3.612-3.612a.324.324,0,0,0-.049-.04l-.012-.007a.34.34,0,0,0-.044-.024l-.014-.006a.362.362,0,0,0-.048-.015l-.014,0a.315.315,0,0,0-.055-.006h-10.146a6.3,6.3,0,0,0-5.22,9.836L1550.3,876.7l-.034.034a6.293,6.293,0,0,0,0,8.911c.092.092.188.181.286.268l-.995.994a.344.344,0,0,0-.1.243v5.961a.344.344,0,0,0,.1.243.348.348,0,0,0,.243.1h10.137a6.288,6.288,0,0,0,4.457-1.848l.042-.043,7.163-7.162.018-.017.017-.017v0h0a6.294,6.294,0,0,0-.007-8.881Z" transform="translate(-1548.417 -864.054)"/>
      </g>
      <g id="Group_128" data-name="Group 128" transform="translate(19.975 0.256)">
        <path id="Path_477" data-name="Path 477" d="M890.183,887.16v0s0,0,0-.006a.348.348,0,0,0-.008-.056l0-.012a.347.347,0,0,0-.021-.059l0-.008c0-.009-.009-.018-.014-.026l-2.594-4.281a7.618,7.618,0,0,0,.876-11.531l-3.564-3.563-.048-.049a7.6,7.6,0,0,0-5.388-2.235H869.9a.344.344,0,0,0-.344.344v7.081l-3.511,3.511a.331.331,0,0,0-.043.052.342.342,0,0,0-.058.191v17.882a.344.344,0,0,0,.344.344h6.421a.335.335,0,0,0,.065-.007h0a.345.345,0,0,0,.123-.051l.005,0a.319.319,0,0,0,.047-.038h0l1.939-1.939,1.035,1.708.1.166a.343.343,0,0,0,.294.165h6.3a.335.335,0,0,0,.058-.006l.016,0a.379.379,0,0,0,.046-.014l.011,0a.351.351,0,0,0,.05-.026l.014-.01a.359.359,0,0,0,.043-.035l0,0h0l7.223-7.223h0a.349.349,0,0,0,.039-.049l.007-.011.009-.014a.349.349,0,0,0,.037-.1l0-.012A.336.336,0,0,0,890.183,887.16Z" transform="translate(-865.947 -865.331)"/>
      </g>
      <g id="Group_129" data-name="Group 129" transform="translate(38.948)">
        <path id="Path_478" data-name="Path 478" d="M1107.8,868.823l-3.611-3.609h0a9.627,9.627,0,0,0-16.013,9.624l-1.21,1.209a9.625,9.625,0,1,0,13.611,13.612h0l7.223-7.223h0a9.613,9.613,0,0,0,0-13.611Z" transform="translate(-1084.141 -862.388)"/>
      </g>
      <g id="Group_130" data-name="Group 130" transform="translate(60.259 0.323)">
        <path id="Path_479" data-name="Path 479" d="M1351.541,871.811c-.648-.616-1.524-1.493-2.236-2.213-.357-.361-.672-.683-.9-.915l-.17-.174c-.055-.058-.111-.117-.169-.174a7.6,7.6,0,0,0-5.388-2.235h-9.514a.343.343,0,0,0-.344.343v7.081l-3.511,3.511h0a.344.344,0,0,0-.1.242v17.883a.344.344,0,0,0,.344.343h6.419a.348.348,0,0,0,.243-.1l3.233-3.233a7.607,7.607,0,0,0,4.957-2.177h0l.049-.048.047-.048,7.158-7.157.018-.017a7.611,7.611,0,0,0-.138-10.911Z" transform="translate(-1329.21 -866.1)"/>
      </g>
    </g>
    <g id="Group_137" data-name="Group 137" transform="translate(3.612 0)">
      <g id="Group_132" data-name="Group 132" transform="translate(0 0.157)">
        <path id="Path_480" data-name="Path 480" d="M692.55,866.938l-.023-.024-.025-.024h0a9.257,9.257,0,0,0-6.536-2.7h-7.852a.343.343,0,0,0-.344.344v17.882h0a.329.329,0,0,0,.006.059.125.125,0,0,0,0,.014.355.355,0,0,0,.045.111l.008.011a.377.377,0,0,0,.039.047h0l3.612,3.612a.346.346,0,0,0,.243.1h7.852a9.28,9.28,0,0,0,6.563-15.847Z" transform="translate(-677.768 -864.191)"/>
        <path id="Path_481" data-name="Path 481" d="M693.179,872.1h-7.508v17.2h7.508a8.6,8.6,0,1,0,0-17.2Zm-.458,11.922h-3.84a.344.344,0,1,1,0-.688H691.4v-5.961h1.319a3.324,3.324,0,1,1,0,6.649Z" transform="translate(-684.984 -871.411)" fill="#ffef00"/>
        <path id="Path_482" data-name="Path 482" d="M759.49,951.025h.631a2.642,2.642,0,0,0,2.462-1.7l-3.093-3.092Z" transform="translate(-752.384 -939.104)" fill="#ef0000"/>
        <path id="Path_483" data-name="Path 483" d="M767.86,943.282a2.64,2.64,0,0,0-2.637-2.637h-.145l2.778,2.777C767.859,943.376,767.86,943.329,767.86,943.282Z" transform="translate(-757.486 -933.997)" fill="#ef0000" opacity="0.5"/>
        <path id="Path_484" data-name="Path 484" d="M698.278,1051.324h-7.022l2.924,2.924h7.71a8.563,8.563,0,0,0,5.863-2.316l-3.124-3.125A9.252,9.252,0,0,1,698.278,1051.324Z" transform="translate(-690.083 -1032.753)" fill="#ef0000" opacity="0.5"/>
        <path id="Path_485" data-name="Path 485" d="M850.6,939.55l3.125,3.125a8.583,8.583,0,0,0-.27-11.87l-1.125-1.125a9.272,9.272,0,0,1-1.73,9.87Z" transform="translate(-835.568 -923.985)" fill="#ef0000"/>
      </g>
      <g id="Group_133" data-name="Group 133" transform="translate(19.975 0.256)">
        <path id="Path_486" data-name="Path 486" d="M925.46,882.709a7.618,7.618,0,0,0,.876-11.531l-3.564-3.563-.048-.049a7.6,7.6,0,0,0-5.388-2.235h-9.514a.344.344,0,0,0-.344.344v17.884a.346.346,0,0,0,.006.058c0,.005,0,.01,0,.015a.349.349,0,0,0,.017.055v0a.353.353,0,0,0,.028.053l.008.011a.327.327,0,0,0,.038.047l3.611,3.611a.346.346,0,0,0,.243.1h6.419a.344.344,0,0,0,.344-.344v-2.782l3.025,3.025a.346.346,0,0,0,.243.1h6.3a.344.344,0,0,0,.294-.522Z" transform="translate(-907.478 -865.331)"/>
        <path id="Path_487" data-name="Path 487" d="M997.286,943.444a.975.975,0,0,0-.689-1.664H994.79l1.939,1.939A.972.972,0,0,0,997.286,943.444Z" transform="translate(-987.198 -935.132)" fill="#ef0000" opacity="0.5"/>
        <path id="Path_488" data-name="Path 488" d="M990.665,948.834l-1.463-1.463v1.463h1.463Z" transform="translate(-982.095 -940.237)" fill="#ef0000"/>
        <path id="Path_489" data-name="Path 489" d="M926.219,1078.882h-5.245l2.924,2.924h5.447l-2.924-2.924Z" transform="translate(-919.8 -1060.312)" fill="#ef0000" opacity="0.5"/>
        <path id="Path_490" data-name="Path 490" d="M1088.735,1050.052l.295.486,1.572,1.572-1.266-2.089-1.572-1.572Z" transform="translate(-1072.087 -1032.526)" fill="#ef0000"/>
        <path id="Path_491" data-name="Path 491" d="M1075.69,928.665a7.581,7.581,0,0,1-2.146,2.494l3.12,3.12a6.931,6.931,0,0,0,.811-10.5l-1.37-1.37a7.661,7.661,0,0,1-.415,6.257Z" transform="translate(-1059.103 -917.445)" fill="#ef0000"/>
        <path id="Path_492" data-name="Path 492" d="M1041.179,1078.882h-4.856l2.924,2.924h5.324l-2.924-2.924Z" transform="translate(-1025.119 -1060.312)" fill="#ef0000" opacity="0.5"/>
        <path id="Path_493" data-name="Path 493" d="M989.2,1020.527v4.588l2.924,2.924v-2.686l-.05-.083Z" transform="translate(-982.095 -1007.032)" fill="#ef0000"/>
        <path id="Path_494" data-name="Path 494" d="M931.49,880.17a6.935,6.935,0,0,0-6.935-6.935h-9.17V890.43h5.732V878.508h2.98a1.662,1.662,0,1,1,0,3.324H921.8v2.885l3.461,5.713h5.492l-2.618-4.321A6.931,6.931,0,0,0,931.49,880.17Z" transform="translate(-914.696 -872.548)" fill="#ffef00"/>
      </g>
      <g id="Group_134" data-name="Group 134" transform="translate(38.948)">
        <path id="Path_495" data-name="Path 495" d="M1142.1,865.212a9.624,9.624,0,1,0-13.61,13.611h0l3.61,3.609a9.624,9.624,0,1,0,13.611-13.611Zm-5.3,8.31a.828.828,0,1,1-.786,1.388A2.973,2.973,0,0,1,1136.8,873.521Z" transform="translate(-1125.671 -862.388)"/>
        <path id="Path_496" data-name="Path 496" d="M1142.512,870.289a8.942,8.942,0,1,0,8.941,8.942A8.942,8.942,0,0,0,1142.512,870.289Zm0,12.61a3.668,3.668,0,1,1,3.668-3.668A3.668,3.668,0,0,1,1142.512,882.9Z" transform="translate(-1132.883 -869.602)" fill="#ffef00"/>
        <path id="Path_497" data-name="Path 497" d="M1317.4,939.92l3.125,3.125a8.924,8.924,0,0,0-.238-12.391c-.354-.356-.722-.722-1.079-1.078a9.614,9.614,0,0,1-1.808,10.344Z" transform="translate(-1300.73 -923.734)" fill="#ef0000"/>
        <path id="Path_498" data-name="Path 498" d="M1196.643,1056.708a9.587,9.587,0,0,1-3.787-.776l1.079,1.078a8.926,8.926,0,0,0,12.39.239l-3.125-3.125A9.6,9.6,0,0,1,1196.643,1056.708Z" transform="translate(-1187.014 -1037.45)" fill="#ef0000" opacity="0.5"/>
      </g>
      <g id="Group_135" data-name="Group 135" transform="translate(60.259 0.323)">
        <path id="Path_499" data-name="Path 499" d="M1389.465,871.811c-.648-.616-1.524-1.492-2.236-2.212-.357-.361-.673-.683-.9-.915l-.171-.175c-.055-.059-.111-.117-.168-.174a7.6,7.6,0,0,0-5.388-2.235h-9.514a.343.343,0,0,0-.344.343v17.882h0a.318.318,0,0,0,.006.059.077.077,0,0,0,0,.013.332.332,0,0,0,.045.111.066.066,0,0,0,.008.011.288.288,0,0,0,.038.047l3.611,3.612a.348.348,0,0,0,.243.1h6.419a.344.344,0,0,0,.344-.343v-2.981h2.751a7.62,7.62,0,0,0,5.25-13.146Z" transform="translate(-1370.746 -866.1)"/>
        <path id="Path_500" data-name="Path 500" d="M1387.813,874h-9.171v17.2h5.732V879.276h2.98a1.662,1.662,0,0,1,0,3.324h-2.293v5.273h2.751a6.935,6.935,0,1,0,0-13.871Z" transform="translate(-1377.955 -873.316)" fill="#ffef00"/>
        <path id="Path_501" data-name="Path 501" d="M1548.978,931.471l3.124,3.124a6.922,6.922,0,0,0-.378-9.66c-.363-.345-.793-.767-1.225-1.2a7.62,7.62,0,0,1-1.521,7.733Z" transform="translate(-1533.48 -918.726)" fill="#ef0000"/>
        <path id="Path_502" data-name="Path 502" d="M1453.932,949.607l-1.463-1.463v1.463h1.463Z" transform="translate(-1445.363 -941.01)" fill="#ef0000"/>
        <path id="Path_503" data-name="Path 503" d="M1460.552,944.215a.975.975,0,0,0-.689-1.663h-1.807l1.94,1.94A.977.977,0,0,0,1460.552,944.215Z" transform="translate(-1450.464 -935.904)" fill="#ef0000" opacity="0.5"/>
        <path id="Path_504" data-name="Path 504" d="M1389.488,1079.656h-5.245l2.924,2.924h5.447l-2.924-2.924Z" transform="translate(-1383.069 -1061.086)" fill="#ef0000" opacity="0.5"/>
        <path id="Path_505" data-name="Path 505" d="M1460.322,1020.287h-2.265l2.924,2.924h2.953a6.907,6.907,0,0,0,4.669-1.812l-3.125-3.125A7.594,7.594,0,0,1,1460.322,1020.287Z" transform="translate(-1450.464 -1005.041)" fill="#ef0000" opacity="0.5"/>
        <path id="Path_506" data-name="Path 506" d="M1452.469,1049.164v.2l2.924,2.923v-2.352l-2.924-2.924Z" transform="translate(-1445.363 -1031.282)" fill="#ef0000"/>
      </g>
      <g id="Group_136" data-name="Group 136" transform="translate(79.321 0.145)">
        <path id="Path_507" data-name="Path 507" d="M1609.557,875.485l0,0,0,0-.01-.01,0,0-1.156-1.157h1.629a.342.342,0,0,0,.344-.343v-5.961a.345.345,0,0,0-.1-.243l-3.612-3.612a.309.309,0,0,0-.049-.04l-.012-.008a.388.388,0,0,0-.044-.023l-.014-.007-.047-.013-.015,0a.486.486,0,0,0-.053-.005h-10.147a6.3,6.3,0,0,0-4.476,10.74h0l0,0,.017.017.018.017,1.144,1.144h-1.628a.343.343,0,0,0-.344.344v5.96s0,0,0,.006a.389.389,0,0,0,.005.061s0,0,0,0a.377.377,0,0,0,.018.06l0,.006a.48.48,0,0,0,.029.054l0,.007a.419.419,0,0,0,.04.048l3.611,3.612a.347.347,0,0,0,.243.1h10.138a6.3,6.3,0,0,0,4.467-10.749Z" transform="translate(-1589.96 -864.054)"/>
        <path id="Path_508" data-name="Path 508" d="M1608.69,877.919h-4.757a.344.344,0,1,1,0-.688h9.336v-5.273h-9.8a5.617,5.617,0,1,0,0,11.233h4.757a.344.344,0,0,1,0,.689H1598.9v5.273h9.794a5.617,5.617,0,0,0,0-11.234Z" transform="translate(-1597.17 -871.271)" fill="#ffef00"/>
        <path id="Path_509" data-name="Path 509" d="M1783.01,882.538l2.924,2.924v-4.989l-2.924-2.923v4.988Z" transform="translate(-1766.223 -876.377)" fill="#ef0000"/>
        <path id="Path_510" data-name="Path 510" d="M1757.05,940.506h-1.719a6.325,6.325,0,0,1,1.595,1.161l.009.009,1.754,1.754h1.487l-2.923-2.924Z" transform="translate(-1740.951 -933.858)" fill="#ef0000" opacity="0.5"/>
        <path id="Path_511" data-name="Path 511" d="M1779.469,984.371l-.008-.008v0l-.956-.956h0l-.622-.623a6.3,6.3,0,0,1-1.289,6.127l3.123,3.123a5.6,5.6,0,0,0-.244-7.659v0h0Z" transform="translate(-1760.364 -972.459)" fill="#ef0000"/>
        <path id="Path_512" data-name="Path 512" d="M1624.7,1060.494h-9.308l2.924,2.924h10a5.591,5.591,0,0,0,3.738-1.43l-3.124-3.124A6.283,6.283,0,0,1,1624.7,1060.494Z" transform="translate(-1613.18 -1041.924)" fill="#ef0000" opacity="0.5"/>
      </g>
    </g>
  </g>
  <path id="Path_513" data-name="Path 513" d="M1173.415,884.368c1.478,1.522,3.018,2.908,4.32,4.49a5.519,5.519,0,0,1-3.463,8.831,5.706,5.706,0,0,1-5.86-2.971,5.543,5.543,0,0,1,1.008-6.4c1.179-1.2,2.377-2.383,3.568-3.572C1173.1,884.633,1173.226,884.534,1173.415,884.368Z" transform="translate(-1114.486 -860.076)" fill="#ffef00"/>
  <g id="GIxVGW" transform="translate(53.848 27.376)">
    <g id="Group_139" data-name="Group 139" transform="translate(0 0)">
      <path id="Path_514" data-name="Path 514" d="M1173.762,924.143a1.566,1.566,0,0,0,1.077,1.464,2,2,0,0,0,1.936-.451,4.134,4.134,0,0,0,1.28-3.789,2,2,0,0,0-1.527-1.523,1.571,1.571,0,0,0-1.7,1.49,3.864,3.864,0,0,1-.647,1.827A5.393,5.393,0,0,0,1173.762,924.143Z" transform="translate(-1173.762 -919.835)" fill="#fff"/>
      <path id="Path_515" data-name="Path 515" d="M1173.762,924.143a5.393,5.393,0,0,1,.415-.983,3.864,3.864,0,0,0,.647-1.827,1.571,1.571,0,0,1,1.7-1.49,2,2,0,0,1,1.527,1.523,4.134,4.134,0,0,1-1.28,3.789,2,2,0,0,1-1.936.451A1.566,1.566,0,0,1,1173.762,924.143Zm1.428-2.2-.484,1.114A.764.764,0,0,0,1175.19,921.938Z" transform="translate(-1173.762 -919.835)"/>
      <path id="Path_516" data-name="Path 516" d="M1185.094,944.019a.764.764,0,0,1-.484,1.114Z" transform="translate(-1183.667 -941.916)" fill="#ffef00"/>
    </g>
  </g>
  <g id="GIxVGW-2" data-name="GIxVGW" transform="translate(59.184 27.83)">
    <g id="Group_140" data-name="Group 140" transform="translate(0 0)">
      <path id="Path_517" data-name="Path 517" d="M1235.125,929.371a1.565,1.565,0,0,0,1.077,1.464,2,2,0,0,0,1.936-.451,4.134,4.134,0,0,0,1.28-3.789,2,2,0,0,0-1.527-1.523,1.571,1.571,0,0,0-1.7,1.49,3.865,3.865,0,0,1-.647,1.827A5.379,5.379,0,0,0,1235.125,929.371Z" transform="translate(-1235.125 -925.063)" fill="#fff"/>
      <path id="Path_518" data-name="Path 518" d="M1235.125,929.371a5.379,5.379,0,0,1,.415-.983,3.865,3.865,0,0,0,.647-1.827,1.571,1.571,0,0,1,1.7-1.49,2,2,0,0,1,1.527,1.523,4.134,4.134,0,0,1-1.28,3.789,2,2,0,0,1-1.936.451A1.565,1.565,0,0,1,1235.125,929.371Zm1.428-2.2-.484,1.114A.764.764,0,0,0,1236.553,927.166Z" transform="translate(-1235.125 -925.063)"/>
      <path id="Path_519" data-name="Path 519" d="M1246.458,949.247a.764.764,0,0,1-.484,1.114Z" transform="translate(-1245.03 -947.144)" fill="#ffef00"/>
    </g>
  </g>
</svg>
