<svg xmlns="http://www.w3.org/2000/svg" viewBox="0 0 249.93 299.55"><g id="Layer_2" data-name="Layer 2"><g id="Layer_1-2" data-name="Layer 1"><path d="M229.44,271.28a29.67,29.67,0,0,1-15.58-4.85c-5.79-3.72-12.66-7.55-19.8-7.55-8.41,0-15.28,4.9-21,15q-6.54,11.4-13.57,11.42c-4,0-9-2.58-14.61-7.44A30,30,0,0,0,125,270.72a30.66,30.66,0,0,0-19.93,7.1c-5.64,4.86-10.7,7.47-14.72,7.47-1.74,0-7,0-13.5-11.42-5.69-10.06-12.56-15-21-15-7.17,0-14,3.83-19.81,7.55a29.84,29.84,0,0,1-15.58,4.85c-3.35,0-5.29-.73-6.2-1.3.3-2,1.91-6,3.15-9.09,3.18-8,7.17-17.92,7.17-29.25V99.19c0-40.92,31.73-84.95,101.33-84.95,47.85,0,99.32,26.6,99.32,85V231.64c0,11.33,4,21.25,7.17,29.25,1.24,3.09,2.88,7.14,3.18,9.09a12.26,12.26,0,0,1-6.2,1.3m16.25-15.67c-2.88-7.21-6.16-15.38-6.16-24V99.19C239.53,31.06,180.69,0,126,0,68.57,0,10.4,34.08,10.4,99.19V231.64c0,8.59-3.26,16.76-6.14,24C.71,264.42-2.3,272,2.46,278.19c3.62,4.72,10,7.3,18.06,7.3a43.94,43.94,0,0,0,23.28-7.07c3.52-2.28,8.55-5.29,12.11-5.29,1.14,0,4.21,0,8.57,7.77,12.33,21.68,30.29,24.77,49.93,7.64,5.22-4.53,15.85-4.59,21.11,0,8.45,7.41,16.28,11,24,11,10.18,0,18.9-6.26,25.94-18.63,4.39-7.77,7.57-7.77,8.61-7.77,3.52,0,8.58,3,12.06,5.29a44,44,0,0,0,23.32,7.07c8,0,14.41-2.58,18-7.27,4.76-6.23,1.74-13.8-1.78-22.61"/><path d="M88.05,77.44c2.93,2.14,5.75,4.44,8.56,6.75,1.38,1.17,2.78,2.34,4.16,3.53l4.11,3.6c2.72,2.43,5.44,4.87,8,7.46,1.3,1.3,2.58,2.62,3.83,4s2.46,2.78,3.61,4.28a0,0,0,0,1,0,0h0c-1.79-.62-3.52-1.33-5.21-2.1s-3.35-1.55-5-2.38c-3.27-1.67-6.44-3.48-9.6-5.31l-4.7-2.77c-1.57-.94-3.11-1.9-4.66-2.85-3.07-2-6.13-3.91-9.09-6A5.08,5.08,0,0,1,88,77.4l0,0"/><path d="M138.22,73.8c4.08,2.47,8,5.2,11.84,8s7.61,5.75,11.32,8.77,7.4,6.06,10.89,9.4c1.74,1.67,3.44,3.4,5.09,5.22A60,60,0,0,1,182,111a0,0,0,0,1,0,0h0a59.55,59.55,0,0,1-7.11-2.26c-2.29-.87-4.52-1.82-6.71-2.84-4.38-2-8.55-4.39-12.72-6.74s-8.25-4.81-12.28-7.36-8-5.22-11.76-8.13a6,6,0,0,1,6.79-9.93"/><path d="M83.3,110.51a42.17,42.17,0,0,1,3.14-7.85c.62-1.23,1.29-2.43,2-3.61s1.4-2.36,2.11-3.53c1.43-2.33,2.9-4.63,4.43-6.88s3.12-4.47,4.84-6.59a4.07,4.07,0,0,1,6.52,4.87c-1.54,2.25-3.22,4.39-4.94,6.51S97.87,97.6,96,99.64c-.92,1-1.84,2-2.78,3s-1.89,2-2.9,2.93a42.24,42.24,0,0,1-6.64,5.24.29.29,0,0,1-.39-.09.31.31,0,0,1,0-.23"/><path d="M134.91,114.92c.76-1.83,1.63-3.57,2.51-5.31s1.81-3.43,2.77-5.11c1.91-3.35,3.94-6.61,6-9.81s4.26-6.36,6.5-9.45,4.53-6.13,7-9a5.13,5.13,0,0,1,8,6.41c-2.28,3.06-4.77,6-7.29,8.81s-5.15,5.65-7.82,8.39-5.42,5.42-8.28,8c-1.42,1.3-2.89,2.56-4.39,3.8s-3,2.47-4.64,3.61a.3.3,0,0,1-.39-.07.29.29,0,0,1,0-.27"/><path d="M73.4,149.79a27.12,27.12,0,0,1-1-6.07,18,18,0,0,1,.13-3.25,8,8,0,0,1,1.38-3.64l.34-.45.14-.23.14-.21.14-.26a11.07,11.07,0,0,0,.55-1.09c.36-.77.68-1.62,1-2.47s.6-1.74.87-2.62c.14-.44.27-.89.4-1.33s.26-.92.36-1.3a3.62,3.62,0,0,1,7,1.79,4.2,4.2,0,0,1-.17.5l0,.09c-.23.55-.44,1-.68,1.47l-.72,1.4c-.5.93-1,1.84-1.62,2.74a25.79,25.79,0,0,1-1.92,2.66,17.37,17.37,0,0,1-1.17,1.3l-.33.32-.37.32-.37.31,0,0,0,0-.06,0a3.86,3.86,0,0,0-1.21,1.6,19,19,0,0,0-.94,2.55,48.38,48.38,0,0,0-1.24,5.73h0a.27.27,0,0,1-.31.23.27.27,0,0,1-.21-.2"/><path d="M172.66,139.24a35.42,35.42,0,0,1-5.26,3.65,12.17,12.17,0,0,1-3.21,1.3,4.09,4.09,0,0,1-1.09.1l-.32,0h-.15l-.11,0-.43-.06-1.57-.29c-1-.18-2-.38-3-.5a19.6,19.6,0,0,0-2.8-.18,6,6,0,0,0-2.23.4l-.19.1-.1,0-.06.06-.14.1-.13.08a4.09,4.09,0,0,1-.46.25,3.15,3.15,0,0,1-.88.32,4,4,0,0,1-.42.09l-.36,0-.37,0h-.31a4,4,0,0,1-.61,0,19.21,19.21,0,0,1-3.63-.82c-1.06-.32-2.06-.66-3-1a54.3,54.3,0,0,0-5.61-1.6,15.43,15.43,0,0,0-5-.35,8.34,8.34,0,0,0-2,.52l-.46.21-.44.25a3.93,3.93,0,0,0-.42.29l-.21.14-.39.28a23,23,0,0,1-6.64,3.21,35.13,35.13,0,0,1-6.75,1.36,54.25,54.25,0,0,1-13.25-.3,63.65,63.65,0,0,1-24.39-8.69,2.36,2.36,0,0,1,2.23-4.15l0,0a70.82,70.82,0,0,0,22.91,6.29,52,52,0,0,0,11.64-.12,30.64,30.64,0,0,0,5.45-1.19,15.81,15.81,0,0,0,4.53-2.22l.67-.48a9.52,9.52,0,0,1,.88-.58l.92-.52,1-.43a14.13,14.13,0,0,1,4-1,17.12,17.12,0,0,1,3.87.11,21.51,21.51,0,0,1,3.52.78,45,45,0,0,1,6.18,2.47l2.77,1.32a15.47,15.47,0,0,0,2.35.91c.26.09.41,0,.11.18l-.11.08s0,0,.08,0l.14-.07.55-.26.28-.13.27-.08.55-.16a10.43,10.43,0,0,1,3.94-.15,28.69,28.69,0,0,1,6.42,1.84l1.43.56.33.12.08,0h0l.07,0a1.65,1.65,0,0,0,.46.06,10.07,10.07,0,0,0,2.74-.51,50.7,50.7,0,0,0,5.78-2.16h0a.27.27,0,0,1,.28.45"/></g></g></svg>