<svg xmlns="http://www.w3.org/2000/svg" viewBox="0 0 245.32 30"><defs><style>.cls-1{fill:#edff02;}</style></defs><g id="Layer_2" data-name="Layer 2"><g id="Layer_1-2" data-name="Layer 1"><path class="cls-1" d="M34.81,30H31L19.49,13.1h3.77Zm-5.24,0H25.8L14.25,13.1H18Zm-2.2-12.8a5.85,5.85,0,0,0,.7-3.06v-2c0-4.06-2.44-5.81-9.72-5.81S8.64,8.1,8.64,12.16v2c0,3.93,2.24,5.68,9,5.82l4.24,6.21c-1.1.1-2.27.13-3.54.13C5.11,26.3,0,21.74,0,14.14v-2C0,4.57,5.11,0,18.32,0S36.64,4.57,36.64,12.16v2c0,4.07-1.5,7.33-5,9.41Z"/><polygon class="cls-1" points="65.04 1.11 72.55 1.11 72.55 25.26 59.6 25.26 48.72 7.09 48.72 25.26 41.22 25.26 41.22 1.11 54.16 1.11 65.01 19.25 65.01 1.11 65.04 1.11"/><polygon class="cls-1" points="87.53 25.26 87.53 7.12 76.29 7.12 76.29 1.11 107.02 1.11 107.02 7.12 95.78 7.12 95.78 25.26 87.53 25.26"/><polygon class="cls-1" points="134.26 20.9 124.55 20.9 118.64 7.05 118.64 25.26 110.73 25.26 110.73 1.11 123.61 1.11 129.58 14.88 135.86 1.11 148.41 1.11 148.41 25.26 140.5 25.26 140.5 7.12 134.26 20.9"/><path class="cls-1" d="M174.94,10.15c0-2.49-1.1-3.5-3.21-3.5h-9.41v7.73h9.51c2.21,0,3.11-.91,3.11-3.46Zm-.8-9c5.84,0,9.11,2.65,9.11,8.67V11c0,6.45-3.34,9-9.11,9H162.36v5.3h-8.25V1.11Z"/><path class="cls-1" d="M194,16.43h9.24l-4.54-9.58Zm13.44,8.83-1.6-3.36H191.29l-1.64,3.36h-8.81L193.26,1.11h10.88l12.38,24.15Z"/><polygon class="cls-1" points="222.89 17 208.74 1.11 218.96 1.11 227.36 10.88 235.61 1.11 245.32 1.11 231.17 17.23 231.17 25.26 222.93 25.26 222.89 17"/></g></g></svg>